<mxfile host="app.diagrams.net" agent="Mozilla/5.0 (Windows NT 10.0; Win64; x64) AppleWebKit/537.36 (KHTML, like Gecko) Chrome/140.0.0.0 Safari/537.36" version="28.2.5">
  <diagram name="Página-1" id="0M3JmCixUIvjTbx0L4Lh">
    <mxGraphModel dx="1665" dy="777" grid="1" gridSize="10" guides="1" tooltips="1" connect="1" arrows="1" fold="1" page="1" pageScale="1" pageWidth="827" pageHeight="1169" math="0" shadow="0">
      <root>
        <mxCell id="0" />
        <mxCell id="1" parent="0" />
        <mxCell id="dWVnxgqt-Yh1_GO-0SDQ-7" value="" style="edgeStyle=orthogonalEdgeStyle;rounded=0;orthogonalLoop=1;jettySize=auto;html=1;" edge="1" parent="1" source="dWVnxgqt-Yh1_GO-0SDQ-1" target="dWVnxgqt-Yh1_GO-0SDQ-2">
          <mxGeometry relative="1" as="geometry" />
        </mxCell>
        <mxCell id="dWVnxgqt-Yh1_GO-0SDQ-1" value="Início" style="ellipse;whiteSpace=wrap;html=1;" vertex="1" parent="1">
          <mxGeometry x="354" y="20" width="120" height="80" as="geometry" />
        </mxCell>
        <mxCell id="dWVnxgqt-Yh1_GO-0SDQ-8" value="" style="edgeStyle=orthogonalEdgeStyle;rounded=0;orthogonalLoop=1;jettySize=auto;html=1;" edge="1" parent="1" source="dWVnxgqt-Yh1_GO-0SDQ-2" target="dWVnxgqt-Yh1_GO-0SDQ-4">
          <mxGeometry relative="1" as="geometry" />
        </mxCell>
        <mxCell id="dWVnxgqt-Yh1_GO-0SDQ-2" value="Ler a nota" style="shape=parallelogram;perimeter=parallelogramPerimeter;whiteSpace=wrap;html=1;fixedSize=1;" vertex="1" parent="1">
          <mxGeometry x="354" y="160" width="120" height="60" as="geometry" />
        </mxCell>
        <mxCell id="dWVnxgqt-Yh1_GO-0SDQ-6" value="" style="edgeStyle=orthogonalEdgeStyle;rounded=0;orthogonalLoop=1;jettySize=auto;html=1;" edge="1" parent="1" source="dWVnxgqt-Yh1_GO-0SDQ-4" target="dWVnxgqt-Yh1_GO-0SDQ-5">
          <mxGeometry relative="1" as="geometry" />
        </mxCell>
        <mxCell id="dWVnxgqt-Yh1_GO-0SDQ-10" value="" style="edgeStyle=orthogonalEdgeStyle;rounded=0;orthogonalLoop=1;jettySize=auto;html=1;" edge="1" parent="1" source="dWVnxgqt-Yh1_GO-0SDQ-4" target="dWVnxgqt-Yh1_GO-0SDQ-9">
          <mxGeometry relative="1" as="geometry" />
        </mxCell>
        <mxCell id="dWVnxgqt-Yh1_GO-0SDQ-13" value="" style="edgeStyle=orthogonalEdgeStyle;rounded=0;orthogonalLoop=1;jettySize=auto;html=1;entryX=0.5;entryY=0;entryDx=0;entryDy=0;" edge="1" parent="1" source="dWVnxgqt-Yh1_GO-0SDQ-4" target="dWVnxgqt-Yh1_GO-0SDQ-11">
          <mxGeometry relative="1" as="geometry">
            <mxPoint x="414" y="480" as="targetPoint" />
          </mxGeometry>
        </mxCell>
        <mxCell id="dWVnxgqt-Yh1_GO-0SDQ-4" value="nota &amp;gt; 9,5" style="rhombus;whiteSpace=wrap;html=1;" vertex="1" parent="1">
          <mxGeometry x="374" y="310" width="80" height="80" as="geometry" />
        </mxCell>
        <mxCell id="dWVnxgqt-Yh1_GO-0SDQ-5" value="&amp;nbsp;Escrever Aprovado" style="shape=parallelogram;perimeter=parallelogramPerimeter;whiteSpace=wrap;html=1;fixedSize=1;" vertex="1" parent="1">
          <mxGeometry x="510" y="320" width="130" height="60" as="geometry" />
        </mxCell>
        <mxCell id="dWVnxgqt-Yh1_GO-0SDQ-9" value="&amp;nbsp;Escrever Reprovado" style="shape=parallelogram;perimeter=parallelogramPerimeter;whiteSpace=wrap;html=1;fixedSize=1;" vertex="1" parent="1">
          <mxGeometry x="180" y="320" width="134" height="60" as="geometry" />
        </mxCell>
        <mxCell id="dWVnxgqt-Yh1_GO-0SDQ-11" value="Fim" style="ellipse;whiteSpace=wrap;html=1;" vertex="1" parent="1">
          <mxGeometry x="354" y="590" width="120" height="80" as="geometry" />
        </mxCell>
      </root>
    </mxGraphModel>
  </diagram>
</mxfile>
